<svg width="756" height="348" viewBox="0 0 756 348" fill="none" xmlns="http://www.w3.org/2000/svg">
<rect width="756" height="348" fill="#1E1E1E"/>
<g clip-path="url(#clip0_0_1)">
<path fill-rule="evenodd" clip-rule="evenodd" d="M129.533 38.0013C129.04 37.9975 128.548 38.0126 128.056 38.0463C127.072 38.1155 126.096 38.2618 125.136 38.4839C124.176 38.7059 123.234 39.0032 122.321 39.3729C121.407 39.7426 120.524 40.1836 119.68 40.6917C119.669 40.703 119.658 40.7106 119.647 40.7219C119.522 40.7896 119.401 40.8614 119.28 40.9329C119.185 40.9885 119.091 41.0452 118.999 41.103L103.552 50.3931L46.74 84.5679C46.7275 84.5755 46.7154 84.5793 46.703 84.5868C46.366 84.8745 46.0437 85.1184 45.7289 85.4309C44.103 86.4943 42.6579 87.8779 41.4561 89.4146C40.047 91.3672 39.0381 93.5931 38.4871 95.9654C37.9348 98.3376 37.8512 100.81 38.2411 103.241C38.6317 105.672 39.488 108.014 40.7612 110.134C42.0335 112.253 43.6977 114.109 45.6587 115.595C47.6203 117.08 49.8403 118.166 52.192 118.791C54.5436 119.418 56.9812 119.571 59.3655 119.242C61.2856 118.902 63.1274 118.203 64.8955 117.406C65.2986 117.212 65.6496 117.068 66.0608 116.867C66.1759 116.821 66.2748 116.755 66.3692 116.696L106.808 92.3744C107.654 91.8668 108.537 91.4264 109.451 91.0575C110.365 90.6877 111.306 90.3906 112.266 90.1685C113.227 89.9462 114.203 89.8 115.186 89.7309C116.17 89.6625 117.157 89.6715 118.14 89.7573C119.121 89.8428 120.094 90.0058 121.05 90.2438C122.007 90.4832 122.944 90.7974 123.851 91.1836C124.758 91.5689 125.633 92.0248 126.469 92.5473C127.305 93.0703 128.098 93.6582 128.842 94.3057C129.426 94.8302 129.976 95.3907 130.49 95.984L130.463 95.945L132.627 98.8151L136.129 104.649L186.715 188.902L207.74 223.915L222.186 247.977L224.771 251.191C226.519 252.939 228.595 254.326 230.879 255.271C233.162 256.216 235.609 256.702 238.08 256.701C240.55 256.699 242.997 256.211 245.279 255.263C247.56 254.315 249.633 252.927 251.378 251.178C253.125 249.428 254.51 247.351 255.454 245.066C256.398 242.781 256.883 240.332 256.881 237.859C256.882 236.872 256.804 235.887 256.651 234.913C256.495 233.938 256.264 232.977 255.958 232.039C255.653 231.101 255.275 230.188 254.828 229.309C254.688 229.071 254.544 228.836 254.394 228.604L254.439 228.578L239.776 204.156L218.905 169.391L168.384 85.2473L145.499 47.1317C144.991 46.2863 144.417 45.4821 143.783 44.7266C143.15 43.9708 142.458 43.2659 141.714 42.6186C140.97 41.9711 140.176 41.3832 139.34 40.8602C138.504 40.3377 137.628 39.8817 136.721 39.4965C135.814 39.111 134.878 38.7974 133.922 38.5587C132.965 38.3205 131.991 38.1578 131.009 38.0722C130.519 38.0287 130.026 38.0058 129.533 38.0013ZM60.5971 82.6636C60.6123 82.6674 60.627 82.6749 60.6421 82.6787C60.627 82.6749 60.6122 82.6711 60.5971 82.6636ZM63.3046 83.6153C63.3189 83.6191 63.3333 83.6267 63.3475 83.6305C63.3332 83.6229 63.3188 83.6228 63.3046 83.6153ZM111.433 110.686C110.94 110.683 110.447 110.698 109.955 110.731C108.972 110.801 107.995 110.947 107.035 111.169C106.075 111.391 105.134 111.687 104.22 112.056C103.307 112.427 102.556 113.067 101.712 113.576C100.919 114.188 100.045 114.663 99.3596 115.393C98.1781 116.24 97.0986 117.22 96.1428 118.316C94.6739 120.304 93.6106 122.563 93.0137 124.962C92.4164 127.362 92.297 129.855 92.6624 132.301C93.0276 134.747 93.8706 137.097 95.1434 139.217C95.2066 139.288 95.2704 139.358 95.3347 139.428L95.2858 139.458L176.826 275.263L182.208 282.999C185.558 287.2 189.37 291.011 193.57 294.36C197.772 297.71 202.338 300.576 207.179 302.906C212.019 305.236 217.106 307.015 222.342 308.208C227.58 309.402 232.936 310.003 238.308 310C243.678 309.997 249.032 309.39 254.267 308.191C259.503 306.992 264.588 305.208 269.426 302.873C274.264 300.537 278.824 297.664 283.022 294.31C287.219 290.955 291.028 287.14 294.374 282.935C297.721 278.729 300.585 274.161 302.912 269.315C305.24 264.47 307.017 259.379 308.21 254.137C309.402 248.895 310.003 243.535 310 238.159C309.998 236.28 309.923 234.402 309.774 232.528C309.626 230.654 309.404 228.786 309.11 226.929C308.815 225.072 308.447 223.228 308.007 221.4C307.568 219.573 307.056 217.763 306.475 215.976C305.894 214.188 305.242 212.424 304.523 210.687C303.803 208.951 303.016 207.243 302.163 205.569C301.414 204.119 300.616 202.695 299.77 201.3L299.794 201.285L277.167 163.599C277.033 163.405 276.896 163.213 276.755 163.025C276.358 162.39 275.921 161.782 275.451 161.2C274.818 160.444 274.126 159.739 273.382 159.092C272.638 158.445 271.845 157.858 271.009 157.335C270.173 156.812 269.298 156.355 268.391 155.97C267.483 155.584 266.547 155.27 265.59 155.032C264.633 154.794 263.66 154.631 262.678 154.545C261.695 154.459 260.708 154.451 259.724 154.519C258.74 154.587 257.763 154.733 256.802 154.955C255.842 155.177 254.901 155.475 253.987 155.845C253.073 156.215 252.189 156.656 251.344 157.164C249.226 158.438 247.378 160.117 245.908 162.105C245.17 163.25 243.291 167.046 242.777 168.75C242.179 171.15 242.059 173.644 242.424 176.09C242.795 178.285 243.553 180.396 244.661 182.326C244.731 182.535 244.806 182.742 244.883 182.948L244.944 183.049L244.929 183.038L267.54 220.698L267.51 220.713C268.04 221.579 268.531 222.467 268.982 223.376C269.536 224.526 270.026 225.706 270.448 226.911C270.87 228.116 271.224 229.344 271.508 230.589C271.792 231.833 272.007 233.092 272.15 234.36C272.294 235.629 272.366 236.905 272.367 238.182C272.369 241.763 271.808 245.323 270.704 248.73C269.6 252.137 267.968 255.349 265.867 258.249C263.765 261.147 261.22 263.697 258.326 265.804C255.433 267.91 252.226 269.548 248.824 270.657C245.421 271.766 241.864 272.331 238.285 272.333C234.707 272.335 231.15 271.773 227.747 270.669C224.343 269.564 221.134 267.93 218.238 265.827C215.342 263.724 212.795 261.178 210.69 258.282C209.6 256.855 209.32 256.282 209.082 255.859L176.776 202.051L128.853 122.239C127.72 120.228 127.632 120.136 127.399 119.816C126.891 118.971 126.317 118.167 125.683 117.411C125.05 116.655 124.358 115.951 123.614 115.303C122.87 114.656 122.076 114.069 121.24 113.547C120.404 113.024 119.528 112.567 118.621 112.181C117.713 111.796 116.776 111.482 115.82 111.243C114.864 111.005 113.891 110.843 112.909 110.757C112.418 110.714 111.925 110.691 111.433 110.686ZM276.192 184.454C276.18 184.469 276.173 184.488 276.162 184.504C276.173 184.489 276.184 184.47 276.192 184.454Z" fill="#0F2A44"/>
</g>
<path d="M394.4 110.66H412L450.88 221.06L460.8 222.66V230.5H418.56V222.66L431.84 221.06L424.32 197.38H377.6L370.08 221.06L383.84 222.66V230.5H345.92V222.66L355.84 221.06L394.4 110.66ZM404.48 136.26L400.48 122.18L396.64 136.58L380.48 187.94H421.28L404.48 136.26ZM504.221 273.7C490.568 273.7 480.648 271.513 474.461 267.14C468.381 262.873 465.341 256.953 465.341 249.38C465.341 244.687 466.781 240.367 469.661 236.42C472.648 232.473 476.168 229.487 480.221 227.46C475.315 224.687 472.861 220.207 472.861 214.02C472.861 210.18 473.981 206.553 476.221 203.14C478.461 199.727 481.395 197.113 485.021 195.3C479.688 192.953 475.581 189.593 472.701 185.22C469.928 180.847 468.541 175.673 468.541 169.7C468.541 163.513 470.248 158.127 473.661 153.54C477.181 148.953 481.768 145.433 487.421 142.98C493.181 140.527 499.261 139.3 505.661 139.3C516.435 139.3 524.861 141.54 530.941 146.02C532.541 144.42 534.995 142.873 538.301 141.38C541.608 139.887 545.128 139.14 548.861 139.14H554.301V153.22H536.701C539.261 157.167 540.541 161.753 540.541 166.98C540.541 173.273 538.941 178.873 535.741 183.78C532.648 188.58 528.275 192.313 522.621 194.98C517.075 197.647 510.781 198.98 503.741 198.98C499.155 198.98 495.048 198.5 491.421 197.54C489.928 199.033 488.701 200.687 487.741 202.5C486.781 204.313 486.301 206.073 486.301 207.78C486.301 211.62 487.581 214.287 490.141 215.78C492.701 217.167 497.288 217.86 503.901 217.86H521.981C532.328 217.86 540.008 219.833 545.021 223.78C550.035 227.727 552.541 233.327 552.541 240.58C552.541 246.66 550.355 252.207 545.981 257.22C541.608 262.34 535.688 266.34 528.221 269.22C520.861 272.207 512.861 273.7 504.221 273.7ZM505.341 190.18C517.501 190.18 523.581 182.98 523.581 168.58C523.581 161.433 521.981 156.207 518.781 152.9C515.688 149.487 510.995 147.78 504.701 147.78C498.835 147.78 494.195 149.433 490.781 152.74C487.368 155.94 485.661 161.113 485.661 168.26C485.661 174.98 487.261 180.313 490.461 184.26C493.768 188.207 498.728 190.18 505.341 190.18ZM505.661 264.42C510.888 264.42 515.795 263.62 520.381 262.02C525.075 260.527 528.861 258.233 531.741 255.14C534.621 252.153 536.061 248.633 536.061 244.58C536.061 239.78 534.781 236.26 532.221 234.02C529.661 231.887 524.701 230.82 517.341 230.82H498.461C494.195 230.82 490.835 230.553 488.381 230.02C484.008 234.82 481.821 240.207 481.821 246.18C481.821 252.153 483.635 256.687 487.261 259.78C490.888 262.873 497.021 264.42 505.661 264.42ZM602.529 232.26C589.622 232.26 579.755 228.047 572.929 219.62C566.209 211.193 562.849 199.94 562.849 185.86C562.849 176.58 564.609 168.42 568.129 161.38C571.649 154.34 576.555 148.9 582.849 145.06C589.249 141.22 596.502 139.3 604.609 139.3C614.529 139.3 622.209 142.073 627.649 147.62C633.195 153.06 636.129 160.9 636.449 171.14C636.449 177.647 636.075 182.607 635.329 186.02H580.289C580.502 196.58 582.955 205.113 587.649 211.62C592.342 218.02 599.009 221.22 607.649 221.22C611.915 221.22 616.342 220.473 620.929 218.98C625.622 217.38 629.249 215.513 631.809 213.38L634.849 220.42C631.755 223.62 627.169 226.393 621.089 228.74C615.009 231.087 608.822 232.26 602.529 232.26ZM618.849 177.54C619.169 175.3 619.329 173.007 619.329 170.66C619.222 163.727 617.729 158.287 614.849 154.34C612.075 150.287 607.649 148.26 601.569 148.26C595.382 148.26 590.422 150.5 586.689 154.98C583.062 159.46 580.982 166.98 580.449 177.54H618.849ZM650.52 222.66L662.52 221.7V154.02L651 151.14V142.5L673.08 139.62H673.4L676.92 142.5V145.38L676.44 157.86H676.92C677.987 156.047 679.907 153.7 682.68 150.82C685.453 147.94 689.027 145.327 693.4 142.98C697.773 140.527 702.52 139.3 707.64 139.3C709.773 139.3 711.533 139.567 712.92 140.1V158.02C712.173 157.487 710.947 157.007 709.24 156.58C707.64 156.047 705.827 155.78 703.8 155.78C694.947 155.78 686.733 158.5 679.16 163.94V221.54L699.48 222.82V230.5H650.52V222.66Z" fill="#0F2A44"/>
<defs>
<clipPath id="clip0_0_1">
<rect width="272" height="272" fill="white" transform="translate(38 38)"/>
</clipPath>
</defs>
</svg>
