<svg width="372" height="372" viewBox="0 0 372 372" fill="none" xmlns="http://www.w3.org/2000/svg">
<g clip-path="url(#clip0_793_394)">
<path fill-rule="evenodd" clip-rule="evenodd" d="M125.185 0.00181466C124.511 -0.00335603 123.837 0.0173363 123.164 0.0633555C121.82 0.157979 120.484 0.358101 119.171 0.661879C117.858 0.965399 116.571 1.37209 115.321 1.87763C114.072 2.38332 112.864 2.98638 111.709 3.68132C111.694 3.69684 111.679 3.70715 111.664 3.72267C111.494 3.81522 111.328 3.91347 111.162 4.0112C111.033 4.08721 110.904 4.16476 110.777 4.24387L89.6526 16.9494L11.9532 63.6885C11.9362 63.6988 11.9197 63.704 11.9026 63.7144C11.4417 64.1079 11.001 64.4414 10.5705 64.8687C8.3467 66.3231 6.37039 68.2154 4.72667 70.317C2.79954 72.9875 1.41976 76.0318 0.666145 79.2762C-0.0891456 82.5206 -0.20344 85.9019 0.329788 89.2269C0.863904 92.5517 2.03504 95.7549 3.77628 98.6538C5.5164 101.552 7.7924 104.09 10.4744 106.122C13.1572 108.153 16.1934 109.639 19.4096 110.494C22.6259 111.351 25.9596 111.56 29.2205 111.111C31.8465 110.645 34.3655 109.689 36.7835 108.599C37.3348 108.334 37.8148 108.137 38.3773 107.862C38.5346 107.8 38.6699 107.71 38.7991 107.629L94.1057 74.365C95.2616 73.6708 96.4702 73.0685 97.7203 72.5639C98.9698 72.0582 100.257 71.6519 101.57 71.3482C102.883 71.0442 104.219 70.8441 105.564 70.7497C106.909 70.6561 108.26 70.6684 109.603 70.7858C110.945 70.9027 112.276 71.1256 113.583 71.4512C114.892 71.7785 116.173 72.2082 117.414 72.7364C118.654 73.2634 119.851 73.887 120.994 74.6015C122.137 75.3168 123.223 76.1208 124.24 77.0063C125.039 77.7236 125.791 78.4903 126.494 79.3016L126.456 79.2483L129.417 83.1736L134.206 91.1523L203.39 206.381L232.144 254.266L251.902 287.175L255.437 291.57C257.828 293.961 260.667 295.857 263.79 297.15C266.913 298.442 270.259 299.107 273.638 299.106C277.017 299.103 280.363 298.435 283.484 297.139C286.604 295.843 289.439 293.944 291.826 291.552C294.215 289.159 296.109 286.319 297.401 283.194C298.691 280.068 299.355 276.719 299.352 273.336C299.353 271.987 299.247 270.64 299.037 269.307C298.825 267.974 298.508 266.66 298.089 265.376C297.672 264.094 297.156 262.846 296.544 261.644C296.353 261.318 296.156 260.996 295.951 260.679L296.012 260.643L275.958 227.243L247.415 179.696L178.319 64.6176L147.021 12.489C146.326 11.3327 145.541 10.2329 144.674 9.19972C143.808 8.16599 142.862 7.20199 141.844 6.31661C140.827 5.43113 139.741 4.627 138.598 3.91179C137.454 3.19714 136.257 2.57349 135.015 2.0467C133.775 1.5195 132.495 1.09066 131.187 0.764132C129.879 0.438378 128.547 0.215794 127.204 0.0987809C126.533 0.0393179 125.859 0.00801949 125.185 0.00181466ZM30.9049 61.0841C30.9256 61.0892 30.9457 61.0996 30.9664 61.1047C30.9457 61.0996 30.9255 61.0944 30.9049 61.0841ZM34.6077 62.3856C34.6273 62.3908 34.647 62.4012 34.6664 62.4064C34.6468 62.3961 34.6272 62.396 34.6077 62.3856ZM100.43 99.4093C99.7558 99.4041 99.0816 99.4248 98.4091 99.4708C97.0642 99.5655 95.7288 99.7656 94.4153 100.069C93.1024 100.372 91.8152 100.778 90.5657 101.283C89.3163 101.789 88.2898 102.665 87.1349 103.361C86.0515 104.198 84.8552 104.848 83.9183 105.846C82.3024 107.005 80.826 108.345 79.5188 109.844C77.5099 112.563 76.0557 115.652 75.2394 118.934C74.4225 122.215 74.2592 125.626 74.7589 128.97C75.2583 132.315 76.4113 135.53 78.1519 138.429C78.2384 138.526 78.3256 138.622 78.4136 138.718L78.3468 138.759L189.865 324.492L197.225 335.073C201.808 340.818 207.02 346.03 212.765 350.61C218.512 355.192 224.756 359.112 231.378 362.298C237.997 365.485 244.953 367.917 252.115 369.55C259.279 371.182 266.603 372.004 273.95 372C281.295 371.996 288.617 371.166 295.777 369.526C302.938 367.886 309.892 365.446 316.509 362.253C323.126 359.058 329.363 355.129 335.103 350.541C340.844 345.954 346.052 340.735 350.63 334.984C355.206 329.233 359.123 322.985 362.307 316.358C365.491 309.731 367.921 302.768 369.552 295.599C371.183 288.429 372.004 281.1 372 273.747C371.997 271.177 371.894 268.608 371.691 266.046C371.489 263.483 371.185 260.928 370.783 258.388C370.379 255.849 369.876 253.326 369.275 250.826C368.673 248.327 367.974 245.853 367.179 243.409C366.384 240.964 365.493 238.551 364.509 236.176C363.525 233.801 362.449 231.465 361.282 229.175C360.257 227.192 359.166 225.245 358.009 223.336L358.042 223.316L327.096 171.775C326.913 171.51 326.725 171.248 326.533 170.989C325.989 170.122 325.392 169.29 324.75 168.494C323.883 167.46 322.937 166.496 321.92 165.611C320.902 164.726 319.817 163.923 318.673 163.208C317.531 162.493 316.334 161.868 315.094 161.341C313.852 160.813 312.571 160.385 311.263 160.058C309.954 159.732 308.623 159.51 307.28 159.393C305.936 159.275 304.586 159.264 303.24 159.357C301.895 159.45 300.558 159.649 299.244 159.953C297.931 160.257 296.644 160.665 295.394 161.171C294.144 161.677 292.936 162.28 291.78 162.975C288.882 164.717 286.356 167.013 284.345 169.732C283.335 171.298 280.765 176.489 280.063 178.819C279.245 182.102 279.08 185.513 279.58 188.858C280.088 191.86 281.124 194.748 282.639 197.387C282.735 197.672 282.838 197.956 282.943 198.237L283.026 198.376L283.005 198.361L313.93 249.867L313.889 249.887C314.614 251.071 315.285 252.286 315.902 253.529C316.66 255.102 317.329 256.716 317.907 258.363C318.484 260.012 318.968 261.691 319.356 263.394C319.745 265.096 320.038 266.817 320.235 268.552C320.431 270.287 320.53 272.032 320.531 273.778C320.534 278.676 319.766 283.545 318.257 288.204C316.748 292.864 314.515 297.257 311.641 301.222C308.767 305.187 305.287 308.674 301.329 311.555C297.371 314.436 292.986 316.676 288.333 318.192C283.678 319.709 278.815 320.483 273.92 320.485C269.026 320.488 264.162 319.72 259.506 318.208C254.852 316.698 250.463 314.463 246.503 311.587C242.542 308.711 239.058 305.228 236.179 301.268C234.688 299.317 234.305 298.533 233.979 297.955L189.797 224.364L124.255 115.209C122.705 112.458 122.586 112.333 122.266 111.896C121.571 110.74 120.787 109.64 119.919 108.607C119.053 107.573 118.107 106.609 117.09 105.724C116.072 104.839 114.987 104.036 113.843 103.321C112.7 102.606 111.502 101.981 110.261 101.454C109.019 100.926 107.738 100.497 106.43 100.171C105.122 99.8453 103.792 99.6229 102.449 99.5057C101.778 99.4473 101.104 99.415 100.43 99.4093ZM325.762 200.297C325.747 200.318 325.736 200.344 325.721 200.366C325.736 200.346 325.752 200.32 325.762 200.297Z" fill="#0F2A44"/>
</g>
<defs>
<clipPath id="clip0_793_394">
<rect width="372" height="372" fill="white"/>
</clipPath>
</defs>
</svg>
